<?xml version="1.0" standalone="no"?>
<!DOCTYPE svg PUBLIC "-//W3C//DTD SVG 20010904//EN"
 "http://www.w3.org/TR/2001/REC-SVG-20010904/DTD/svg10.dtd">
<svg version="1.0" xmlns="http://www.w3.org/2000/svg"
 width="1280.000000pt" height="512.000000pt" viewBox="0 0 1280.000000 512.000000"
 preserveAspectRatio="xMidYMid meet">
<g transform="translate(0.000000,512.000000) scale(0.100000,-0.100000)"
fill="#000000" stroke="none">
<path d="M3960 4200 c-12 -46 -26 -44 -33 5 -3 20 -5 14 -6 -20 -2 -56 -13
-81 -31 -70 -10 6 -11 -9 -6 -71 4 -43 11 -100 17 -125 7 -32 7 -70 0 -123
-19 -132 -14 -408 9 -501 33 -139 41 -168 67 -255 40 -132 53 -193 73 -360 11
-85 33 -222 50 -305 31 -150 36 -212 27 -380 -3 -62 -11 -104 -26 -135 -11
-25 -21 -51 -21 -58 0 -7 -10 -34 -21 -60 -22 -48 -27 -131 -14 -213 4 -23 2
-40 -5 -44 -18 -11 -69 45 -81 88 -13 48 -28 54 -84 33 -44 -17 -197 -149
-242 -210 -30 -40 -31 -105 -3 -131 19 -17 25 -18 68 -6 130 37 158 30 212
-55 23 -36 50 -85 59 -107 25 -57 126 -184 161 -202 56 -29 149 -14 201 32 15
13 19 10 40 -26 12 -23 34 -48 47 -57 35 -23 118 -27 159 -8 77 37 295 311
341 429 28 73 37 91 62 131 l20 31 -40 32 c-35 28 -49 33 -103 34 -54 2 -62 0
-65 -18 -6 -29 -20 -41 -33 -28 -8 8 -6 21 6 46 18 39 18 48 -11 316 -13 124
-14 162 -4 191 11 33 9 47 -20 136 l-32 99 6 195 c3 107 9 215 13 240 5 34 32
83 121 213 126 186 268 463 297 577 9 36 34 102 56 146 21 45 39 85 39 90 0 5
9 26 19 46 20 35 20 36 0 31 -16 -5 -19 0 -20 28 0 31 -1 32 -9 12 -11 -28
-19 -29 -36 -5 -13 16 -13 16 -14 -2 0 -14 -6 -17 -25 -14 -24 5 -25 3 -25
-38 0 -24 -4 -44 -10 -44 -5 0 -10 -17 -10 -39 0 -49 -64 -191 -86 -191 -9 0
-18 -10 -22 -22 -19 -72 -209 -406 -265 -465 -49 -52 -61 -45 -55 32 3 36 2
65 -2 65 -9 0 -80 106 -80 119 0 16 61 61 82 61 12 0 29 -7 39 -16 10 -9 30
-14 46 -12 26 3 25 5 -30 37 -32 19 -61 40 -64 47 -3 8 -14 14 -24 14 -16 0
-19 8 -19 46 0 40 -2 45 -15 34 -13 -10 -19 -10 -35 5 -19 17 -23 17 -112 -1
-22 -5 -27 -2 -30 17 -2 17 -17 31 -48 46 -58 28 -62 28 -54 -3 4 -15 3 -25
-2 -22 -5 2 -22 10 -37 18 -24 12 -30 12 -37 0 -6 -9 -21 -11 -53 -7 -39 6
-46 4 -50 -13 -3 -11 -12 -20 -22 -20 -10 0 -15 -7 -13 -17 2 -15 -4 -18 -37
-18 l-40 0 -13 70 c-7 39 -16 165 -20 280 -7 180 -6 221 9 290 24 114 32 185
22 185 -5 0 -15 -23 -22 -51 -12 -47 -33 -70 -48 -55 -4 3 -1 29 5 58 15 62 8
77 -8 18z"/>
<path d="M2068 4193 c-10 -3 -18 -8 -18 -12 0 -18 74 -129 106 -158 18 -18 34
-36 34 -40 0 -64 -109 -509 -133 -546 -78 -119 -229 -246 -302 -254 -38 -5
-43 -3 -48 18 -10 37 -8 84 3 95 11 11 -9 40 -72 107 -16 16 -28 33 -28 38 0
5 -4 9 -9 9 -5 0 -24 12 -41 27 -17 14 -60 34 -94 44 -37 10 -83 32 -110 53
-50 38 -61 42 -71 26 -4 -6 -26 -8 -56 -4 -34 5 -49 3 -49 -5 0 -6 -11 -11
-25 -11 -29 0 -32 -8 -8 -26 17 -11 15 -15 -19 -49 -61 -61 -89 -145 -53 -159
12 -4 14 -15 9 -46 -5 -32 -4 -40 9 -40 16 0 27 -20 27 -51 0 -11 7 -22 15
-25 8 -3 20 -24 25 -45 6 -23 17 -39 26 -39 8 0 20 -11 26 -25 6 -14 17 -25
24 -25 19 0 25 -28 8 -44 -8 -9 -33 -20 -54 -26 -22 -6 -72 -24 -112 -41 -40
-17 -119 -40 -175 -50 -57 -10 -112 -23 -122 -29 -11 -5 -34 -10 -51 -10 -39
0 -298 89 -410 141 -96 45 -136 78 -145 121 -6 23 -10 27 -21 18 -10 -9 -21
-7 -45 11 l-32 23 6 -33 c4 -19 7 -42 7 -52 0 -10 13 -33 28 -51 16 -18 31
-41 35 -50 3 -9 116 -73 254 -143 l248 -126 80 6 c77 6 412 50 467 61 24 6 31
-2 89 -87 72 -108 155 -277 164 -334 5 -28 -3 -74 -24 -158 -17 -65 -31 -126
-31 -135 0 -10 -13 -49 -29 -87 -16 -39 -36 -106 -45 -150 -21 -109 -62 -357
-81 -490 -9 -60 -19 -113 -24 -118 -5 -5 -28 17 -52 49 -31 40 -81 84 -169
146 -69 48 -138 99 -154 113 l-28 25 3 112 4 113 -175 3 c-189 3 -226 -4 -236
-44 -10 -39 4 -58 54 -77 59 -20 97 -49 114 -85 7 -14 39 -45 70 -67 52 -37
252 -260 435 -485 76 -94 130 -134 181 -132 75 3 102 41 194 274 44 113 66
158 78 158 9 0 31 16 50 35 40 41 54 43 101 11 35 -24 35 -26 58 -156 19 -111
30 -147 67 -221 42 -84 72 -119 102 -119 37 0 81 33 93 68 28 84 -10 946 -51
1153 -5 26 -14 136 -20 245 -6 110 -16 271 -23 359 -6 88 -11 199 -10 247 l2
88 116 141 c64 78 137 172 161 208 l44 67 25 244 c33 326 33 318 -11 361 -19
18 -44 49 -55 67 -12 17 -26 32 -34 32 -7 0 -18 7 -25 16 -18 21 -42 31 -62
27z"/>
<path d="M11235 4065 c-5 -2 -27 -6 -48 -10 -30 -5 -41 -13 -57 -45 -11 -22
-20 -48 -20 -58 0 -11 -7 -36 -15 -55 -21 -50 -20 -88 2 -80 14 6 15 0 10 -55
-6 -57 -4 -66 28 -128 42 -79 36 -94 -26 -75 -24 7 -88 16 -143 20 -77 6 -131
18 -226 49 -69 22 -150 44 -180 48 -30 3 -107 21 -170 39 -63 18 -157 38 -209
45 -52 7 -112 18 -134 26 -22 8 -67 14 -101 14 -33 1 -78 7 -99 14 -44 16
-131 82 -200 151 l-50 50 7 -35 c17 -89 129 -260 170 -260 8 0 19 -6 23 -13 5
-8 46 -18 106 -24 64 -8 108 -18 130 -32 36 -22 139 -51 267 -76 47 -9 97 -25
112 -36 15 -10 38 -19 51 -19 14 0 30 -7 37 -15 7 -8 23 -15 35 -15 13 0 61
-20 107 -44 45 -24 128 -58 183 -76 55 -18 106 -38 114 -43 46 -38 58 -234 25
-427 -3 -20 -17 -44 -32 -57 -17 -15 -27 -35 -31 -65 -5 -36 -11 -45 -39 -59
-38 -17 -52 -35 -52 -66 0 -12 -16 -53 -35 -90 -19 -37 -44 -105 -55 -150 -18
-69 -19 -91 -11 -138 6 -30 15 -64 21 -74 5 -11 14 -31 20 -46 11 -28 23 -17
-146 -130 l-51 -34 -7 -85 c-4 -47 -14 -110 -23 -138 -25 -79 -23 -221 3 -278
31 -67 78 -110 120 -110 30 0 37 5 48 33 8 17 19 73 25 122 12 92 50 190 81
206 124 62 277 119 323 119 23 0 237 -117 237 -130 0 -5 -15 -20 -33 -34 -29
-22 -44 -26 -108 -26 -63 -1 -83 -5 -129 -30 -30 -17 -69 -30 -87 -30 -54 0
-82 -46 -99 -165 -7 -55 -20 -85 -72 -162 -34 -52 -34 -53 -30 -147 5 -116 19
-139 82 -134 40 3 42 4 81 83 22 44 48 104 58 133 20 58 55 88 117 98 19 3 64
18 100 34 66 29 188 66 314 95 94 22 140 47 175 98 46 67 55 116 36 189 -20
78 -97 261 -130 310 -22 33 -25 45 -19 86 8 65 -8 118 -56 176 -48 58 -52 100
-15 161 17 27 25 55 25 86 0 25 4 59 9 75 5 16 14 76 20 134 12 109 50 246 83
300 16 28 22 31 51 25 18 -4 47 -16 66 -26 18 -11 61 -31 95 -45 33 -14 90
-43 126 -64 80 -48 198 -92 349 -131 130 -33 157 -47 176 -94 19 -44 37 -49
102 -28 66 21 87 51 58 83 -10 11 -26 20 -35 20 -9 0 -34 13 -56 29 -21 15
-64 36 -94 46 -63 19 -309 155 -358 197 -18 15 -52 38 -75 49 -23 12 -58 34
-77 49 -19 15 -50 35 -67 44 -18 9 -43 25 -55 36 -13 11 -58 52 -101 90 l-78
70 -62 0 c-45 0 -72 6 -97 21 -76 46 -95 82 -70 130 12 22 49 25 69 7 11 -11
12 -10 6 1 -5 9 -1 19 11 28 16 11 18 29 20 140 l2 127 -44 50 c-24 28 -44 55
-44 61 0 12 -21 26 -99 67 -49 26 -126 37 -166 23z"/>
<path d="M7376 3791 c-4 -6 -5 -30 -1 -51 10 -58 -23 -201 -47 -208 -10 -2
-18 -12 -18 -22 0 -22 -25 -44 -40 -35 -5 3 -10 17 -10 30 0 34 -18 41 -22 8
-6 -49 -27 -37 -58 33 -17 37 -33 64 -36 61 -3 -3 4 -23 15 -45 29 -57 9 -64
-42 -14 -35 33 -45 38 -59 29 -13 -9 -21 -7 -36 6 -18 16 -20 17 -26 1 -4 -10
-13 -14 -26 -11 -12 3 25 -42 85 -105 58 -60 105 -117 105 -126 -1 -10 -28
-35 -63 -57 -126 -81 -193 -170 -203 -268 -3 -29 -17 -97 -30 -152 -50 -209
-57 -282 -50 -530 6 -218 5 -236 -19 -357 -33 -171 -52 -630 -29 -736 4 -21
69 -61 99 -62 20 0 144 86 166 115 13 17 40 49 60 72 24 26 40 55 44 80 12 76
15 84 32 81 8 -2 40 -50 70 -108 30 -58 64 -115 75 -127 29 -31 69 -37 133
-18 66 19 116 61 181 151 25 36 63 76 85 90 28 17 39 30 35 42 -19 65 -18 69
54 210 57 114 81 150 123 188 59 53 130 89 210 106 57 12 70 8 164 -48 17 -10
35 -15 39 -11 10 10 -44 122 -72 148 -13 12 -53 30 -90 40 -43 12 -79 30 -98
48 -74 69 -92 64 -140 -40 -27 -58 -56 -91 -247 -277 -119 -117 -221 -212
-228 -212 -13 0 -15 9 -41 175 -20 123 -20 130 -3 142 26 19 91 16 140 -8 24
-12 47 -19 50 -15 10 9 -11 47 -51 93 -29 34 -45 43 -81 49 -24 3 -48 11 -53
18 -5 6 -12 35 -15 65 -5 37 -23 85 -59 155 l-52 101 -1 105 0 105 40 59 c22
33 45 61 51 63 6 2 11 -20 12 -60 2 -59 -1 -67 -31 -102 -32 -37 -33 -40 -20
-67 9 -16 23 -28 34 -28 11 0 22 -6 25 -14 7 -18 62 0 82 27 7 9 24 17 36 17
18 0 26 7 31 28 8 33 43 72 65 72 9 0 24 16 33 35 20 42 47 47 47 9 0 -41 23
-15 45 51 14 39 24 55 37 55 15 0 17 6 12 43 -5 33 -2 46 10 56 13 11 20 11
28 3 18 -18 28 -15 28 7 0 11 4 22 9 25 10 6 92 -55 126 -94 29 -32 55 -44
233 -104 184 -63 243 -90 306 -145 26 -23 68 -47 95 -55 60 -18 89 -32 120
-60 17 -15 25 -17 28 -8 7 17 24 15 53 -8 14 -11 36 -20 51 -20 14 0 30 -5 37
-12 7 -7 12 -8 12 -2 0 25 -81 88 -170 133 -97 49 -342 208 -484 313 -44 33
-123 81 -175 108 -53 28 -109 60 -125 73 -26 21 -28 25 -16 48 7 13 19 28 26
32 13 8 20 57 9 57 -3 0 -16 -7 -30 -16 -34 -22 -62 -4 -70 44 -7 43 -18 85
-36 128 -11 29 -10 34 25 80 25 32 36 56 34 74 -4 30 -31 34 -36 5 -10 -51
-60 -71 -86 -34 -10 14 -21 19 -32 15 -23 -9 -44 11 -44 42 0 13 14 50 32 81
17 31 25 50 18 44 -21 -20 -40 -15 -40 10 -1 20 -2 21 -14 5 -7 -10 -18 -18
-23 -18 -6 0 -13 -27 -16 -59 -6 -73 -11 -81 -46 -81 -40 0 -57 18 -75 80 -9
35 -27 67 -46 85 l-30 29 0 -35 c0 -19 -3 -43 -6 -54 -6 -23 -42 -50 -52 -40
-3 3 -9 39 -13 80 -8 78 -21 116 -33 96z"/>
<path d="M7302 3575 c0 -16 2 -22 5 -12 2 9 2 23 0 30 -3 6 -5 -1 -5 -18z"/>
</g>
</svg>
